<svg id="Layer_1" data-name="Layer 1" xmlns="http://www.w3.org/2000/svg" viewBox="0 0 242.01 241.73"><defs><style>.cls-1{fill:#fff;}</style></defs><path d="M127.33,247.19h-90c-17.63,0-30.61-12.2-30.67-29.88q-.33-90.74,0-181.48c.07-18,13-30.18,31-30.18q90,0,180,0c18.28,0,30.77,12.49,30.77,30.69,0,60-.24,120,.16,180a30.71,30.71,0,0,1-31.18,31C187.34,246.75,157.33,247.19,127.33,247.19Z" transform="translate(-6.49 -5.63)"/><path class="cls-1" d="M202,69.23q-33.75,33-67.51,65.94c-3.85,3.76-9.28,4.11-12.94.42q-33.1-33.36-66-66.92c-.17-.18-.11-.58-.21-1.17H200.78Z" transform="translate(-6.49 -5.63)"/><path class="cls-1" d="M152.53,136.18l48.23,49.32H54.23L102.59,136c7.38,7,13.46,15.8,24.92,15.89C138.75,152,145.2,144,152.53,136.18Z" transform="translate(-6.49 -5.63)"/><path class="cls-1" d="M93.87,126.62,44.7,173.05V79Z" transform="translate(-6.49 -5.63)"/><path class="cls-1" d="M210.3,172.94l-48.43-45.35c16.8-16.55,32.68-32.21,48.43-47.74Z" transform="translate(-6.49 -5.63)"/></svg>