<?xml version="1.0" encoding="utf-8"?>
<!-- Generator: Adobe Illustrator 26.0.1, SVG Export Plug-In . SVG Version: 6.00 Build 0)  -->
<svg version="1.1" id="Layer_1" xmlns="http://www.w3.org/2000/svg" xmlns:xlink="http://www.w3.org/1999/xlink" x="0px" y="0px"
	 viewBox="0 0 255 253" style="enable-background:new 0 0 255 253;" xml:space="preserve">
<style type="text/css">
	.st0{fill:#F9F9F9;}
</style>
<g>
	<g>
		<path d="M127.33,247.19c-30,0-60,0.01-90,0c-17.63-0.01-30.61-12.2-30.67-29.88C6.44,156.82,6.44,96.32,6.64,35.83
			C6.71,17.85,19.68,5.65,37.63,5.65c59.98-0.01,119.97-0.02,179.95,0c18.28,0.01,30.77,12.49,30.77,30.7c0.01,60-0.24,120,0.15,180
			c0.11,17.34-14.01,31.37-31.18,31.02C187.34,246.75,157.33,247.19,127.33,247.19z"/>
	</g>
	<g>
		<path class="st0" d="M136.7,230.76c-6.12,0-12.24,0-18.35,0c-3.26-0.52-6.52-0.98-9.76-1.59c-24.98-4.66-45.72-16.78-61.69-36.42
			c-20.27-24.91-27.51-53.53-21.93-85.15c4.41-25.01,16.75-45.71,36.4-61.68c24.93-20.25,53.53-27.39,85.18-21.92
			c19.02,3.29,35.78,11.55,50.12,24.4c20.33,18.22,32.11,40.96,34.7,68.24c1.15,12.1,0.4,24.1-2.7,35.92
			c-5.74,21.87-17.32,40.06-34.68,54.48c-13.81,11.47-29.61,18.87-47.31,22.1C143.36,229.75,140.02,230.23,136.7,230.76z
			 M153.48,210.16c33.53-9.53,66.95-45.42,61.04-94.66c-5.22-43.52-44.03-79.96-93.85-76.34c-43.45,3.16-80.08,39.14-80.83,86.14
			c-0.71,44.41,31.2,76.89,62.61,85.06c0-0.71,0-1.38,0-2.04c0-4.76-0.08-9.51,0.03-14.27c0.12-5.03,1.15-9.84,4.44-13.85
			c1.03-1.26,2.32-2.3,3.35-3.3c-5.44-1.23-10.85-2.17-16.09-3.69c-13.12-3.8-22.56-11.8-27.06-24.98
			c-2.46-7.19-3.19-14.65-3.09-22.23c0.12-9.53,3.18-17.9,9.4-25.14c0.38-0.44,0.6-1.37,0.42-1.9c-2.47-7.36-2.15-14.71,0.18-21.97
			c1.25-3.89,0.28-4.13,5.21-3.65c1.54,0.15,3.1,0.37,4.59,0.77c6.41,1.76,12.06,5.07,17.63,8.57c0.76,0.47,1.92,0.79,2.75,0.58
			c15.77-3.98,31.51-3.9,47.3-0.11c0.96,0.23,2.29,0.01,3.12-0.52c6.08-3.88,12.37-7.32,19.44-8.99c1.79-0.42,3.73-0.31,5.59-0.27
			c0.49,0.01,1.22,0.59,1.4,1.08c2.92,7.82,3.76,15.79,1.19,23.87c-0.41,1.3-0.24,2.1,0.62,3.08c3.69,4.18,6.28,8.98,7.65,14.39
			c2.49,9.78,1.63,19.49-0.75,29.15c-2.09,8.52-6.47,15.59-13.38,21.04c-6.1,4.81-13.28,7.21-20.72,8.89
			c-3.31,0.75-6.69,1.18-10.31,1.81c6.17,4.76,8.23,11.01,8.12,18.24C153.42,199.93,153.48,204.96,153.48,210.16z"/>
	</g>
</g>
</svg>
