<svg id="Layer_1" data-name="Layer 1" xmlns="http://www.w3.org/2000/svg" viewBox="0 0 242.01 241.73"><defs><style>.cls-1{fill:#fff;}</style></defs><path d="M127.33,247.19h-90c-17.63,0-30.61-12.2-30.67-29.88q-.33-90.74,0-181.48c.07-18,13-30.18,31-30.18q90,0,180,0c18.28,0,30.77,12.49,30.77,30.69,0,60-.24,120,.16,180a30.71,30.71,0,0,1-31.18,31C187.34,246.75,157.33,247.19,127.33,247.19Zm9.25-41c0-4.45,0-8.27,0-12.09.17-16.66-.13-33.33.72-49.95.59-11.47,9-18.13,20.14-17.61,10.48.5,16.76,7.07,17,18.81.37,18.48.25,37,.34,55.44,0,1.76,0,3.53,0,5.34h32.5a19.57,19.57,0,0,0,.28-2.26c0-22.66.34-45.32-.27-68a50.63,50.63,0,0,0-4.84-20.56C191.36,93,158,89.73,140.8,108.78c-1.12,1.24-2.23,2.49-4.31,4.83V100.38H105.4V206.15ZM83.25,100.42H50.67V206H83.25Zm3.12-34.58A19.59,19.59,0,0,0,66.73,46.22c-10.61.09-19.48,9.26-19.35,20A19.72,19.72,0,0,0,66.86,85.55,19.44,19.44,0,0,0,86.37,65.84Z" transform="translate(-6.49 -5.63)"/><path class="cls-1" d="M136.58,206.15H105.4V100.38h31.09v13.23c2.08-2.34,3.19-3.59,4.31-4.83,17.15-19,50.56-15.79,61.65,6.53a50.63,50.63,0,0,1,4.84,20.56c.61,22.64.26,45.3.27,68a19.57,19.57,0,0,1-.28,2.26h-32.5c0-1.81,0-3.58,0-5.34-.09-18.48,0-37-.34-55.44-.23-11.74-6.51-18.31-17-18.81-11.1-.52-19.55,6.14-20.14,17.61-.85,16.62-.55,33.29-.72,49.95C136.55,197.88,136.58,201.7,136.58,206.15Z" transform="translate(-6.49 -5.63)"/><path class="cls-1" d="M83.25,100.42V206H50.67V100.42Z" transform="translate(-6.49 -5.63)"/><path class="cls-1" d="M86.37,65.84A19.44,19.44,0,0,1,66.86,85.55,19.72,19.72,0,0,1,47.38,66.22c-.13-10.74,8.74-19.91,19.35-20A19.59,19.59,0,0,1,86.37,65.84Z" transform="translate(-6.49 -5.63)"/></svg>